<?xml version="1.0" encoding="utf-8"?>
<!-- Generator: Adobe Illustrator 22.0.0, SVG Export Plug-In . SVG Version: 6.00 Build 0)  -->
<svg version="1.1" id="Layer_1" xmlns="http://www.w3.org/2000/svg" xmlns:xlink="http://www.w3.org/1999/xlink" x="0px" y="0px"
	 viewBox="0 0 24 24" style="enable-background:new 0 0 24 24;" xml:space="preserve">
<path fill="#848888" class="st0" d="M12,0C5.4,0,0,5.4,0,12c0,6.6,5.4,12,12,12s12-5.4,12-12C24,5.4,18.6,0,12,0z M2,12c0-2.5,0.9-4.8,2.4-6.5
	L6.9,8c-1,0.5-2,1-2.9,1.8c-0.3,0.3-0.4,0.7-0.1,1.1c0.3,0.3,0.7,0.4,1.1,0.1c1-0.8,2.1-1.4,3.2-1.8l1.8,1.8
	c-1.3,0.3-2.6,0.9-3.7,1.9C5.8,13,5.7,13.5,6,13.8c0.3,0.3,0.7,0.4,1.1,0.1c1.2-1,2.7-1.5,4.1-1.7l2.6,2.6c-1.6-0.5-3.4-0.3-4.8,0.7
	c-0.3,0.2-0.4,0.7-0.2,1c0.1,0.2,0.4,0.3,0.6,0.3c0.2,0,0.3,0,0.4-0.1c1.3-0.9,3.1-0.9,4.4,0c0.3,0.2,0.8,0.2,1-0.2
	c0,0,0-0.1,0.1-0.1l3.2,3.2c-1.8,1.5-4,2.4-6.5,2.4C6.5,22,2,17.5,2,12z M19.6,18.5l-6.3-6.3c1.3,0.2,2.6,0.8,3.7,1.7
	c0.1,0.1,0.3,0.2,0.5,0.2c0.2,0,0.4-0.1,0.6-0.3c0.3-0.3,0.2-0.8-0.1-1.1c-1.9-1.5-4-2.2-6.2-2.1l-2-2c3.2-0.7,6.6,0.1,9.4,2.3
	c0.1,0.1,0.3,0.2,0.5,0.2c0.2,0,0.4-0.1,0.6-0.3c0.3-0.3,0.2-0.8-0.1-1.1C16.6,7,12.4,6.2,8.5,7.4l-3-3C7.2,2.9,9.5,2,12,2
	c5.5,0,10,4.5,10,10C22,14.5,21.1,16.8,19.6,18.5z"/>
</svg>
